<svg xmlns="http://www.w3.org/2000/svg" xmlns:xlink="http://www.w3.org/1999/xlink" viewBox="0,0,256,256" width="48px" height="48px"><g fill="#ffffff" fill-rule="nonzero" stroke="none" stroke-width="1" stroke-linecap="butt" stroke-linejoin="miter" stroke-miterlimit="10" stroke-dasharray="" stroke-dashoffset="0" font-family="none" font-weight="none" font-size="none" text-anchor="none" style="mix-blend-mode: normal"><g transform="scale(10.66667,10.66667)"><path d="M15.88672,1c-0.91259,0 -1.80903,0.22864 -2.59961,0.65625l-7.7207,4.06445v-0.00195c-1.80265,0.94645 -2.92969,2.81353 -2.92969,4.84766c0,1.3451 0.58584,2.51599 1.41016,3.48047c-0.83077,0.97472 -1.41016,2.14901 -1.41016,3.47461c0,3.01119 2.4651,5.47852 5.47656,5.47852c0.91711,0 1.81548,-0.2269 2.60352,-0.6582l7.57617,-3.98828l-0.0332,0.01563c1.89194,-0.90916 3.10352,-2.83724 3.10352,-4.93555c0,-1.3451 -0.58584,-2.51599 -1.41016,-3.48047c0.83077,-0.97473 1.41016,-2.14901 1.41016,-3.47461c0,-3.01119 -2.4651,-5.47852 -5.47656,-5.47852zM15.88672,3c1.92654,0 3.47656,1.55171 3.47656,3.47852c0,1.07146 -0.47433,2.04371 -1.2832,2.69922l-0.95898,0.77734l0.95898,0.77734c0.79153,0.64098 1.2832,1.61207 1.2832,2.70117c0,1.3217 -0.77864,2.55997 -1.9707,3.13281l-0.01562,0.00781l-7.61328,4.00977l-0.00586,0.00391c-0.47996,0.26271 -1.06164,0.41211 -1.64453,0.41211c-1.92654,0 -3.47656,-1.5517 -3.47656,-3.47852c0,-1.07146 0.47433,-2.04371 1.2832,-2.69922l0.95898,-0.77734l-0.95898,-0.77734c-0.79153,-0.64098 -1.2832,-1.61207 -1.2832,-2.70117c0,-1.29987 0.70603,-2.47062 1.85938,-3.07617h0.00195l7.73438,-4.07227l0.00586,-0.00391c0.49097,-0.2658 1.07167,-0.41406 1.64844,-0.41406zM10,9v6l5,-3z"></path></g></g></svg>