<svg xmlns="http://www.w3.org/2000/svg" xmlns:xlink="http://www.w3.org/1999/xlink" viewBox="0,0,256,256" width="48px" height="48px"><g fill="#ffffff" fill-rule="nonzero" stroke="none" stroke-width="1" stroke-linecap="butt" stroke-linejoin="miter" stroke-miterlimit="10" stroke-dasharray="" stroke-dashoffset="0" font-family="none" font-weight="none" font-size="none" text-anchor="none" style="mix-blend-mode: normal"><g transform="scale(10.66667,10.66667)"><path d="M12,3c-2.78013,0 -4.92978,0.18494 -6.47461,0.39453c-2.00619,0.27213 -3.52539,1.98532 -3.52539,4.01563v9.17969c0,2.03108 1.5195,3.74354 3.52539,4.01563c1.54528,0.21067 3.69448,0.39453 6.47461,0.39453c2.78013,0 4.92978,-0.18494 6.47461,-0.39453c2.00675,-0.27204 3.52539,-1.98484 3.52539,-4.01562v-9.17969c0,-2.03108 -1.5195,-3.74354 -3.52539,-4.01562c-1.54483,-0.20959 -3.69448,-0.39453 -6.47461,-0.39453zM12,4.5c2.71387,0 4.79627,0.18045 6.27344,0.38086c1.28211,0.17391 2.22656,1.24038 2.22656,2.5293v9.17969c0,1.28922 -0.94331,2.35534 -2.22656,2.5293c-1.47717,0.20041 -3.55956,0.38086 -6.27344,0.38086c-2.71387,0 -4.79671,-0.17953 -6.27344,-0.38086c-1.28211,-0.17391 -2.22656,-1.24038 -2.22656,-2.5293v-9.17969c0,-1.28769 0.94475,-2.35543 2.22656,-2.5293c1.47717,-0.20041 3.55956,-0.38086 6.27344,-0.38086zM10.91797,8.8125c-0.47897,0.00445 -0.91797,0.38878 -0.91797,0.92578v4.52539c0,0.716 0.77853,1.15992 1.39453,0.79492l3.82031,-2.26172c0.604,-0.359 0.604,-1.2338 0,-1.5918l-3.82031,-2.26172c-0.154,-0.09125 -0.31691,-0.13234 -0.47656,-0.13086z"></path></g></g></svg>